# xmcd
#
# Track frame offsets:
#	150
#	15708
#	31758
#	48331
#	65491
#	86326
#	104628
#	122185
#	138577
#	147229
#	163679
#	179488
#	195644
#	211904
#	226677
#	240992
#	255144
#	267959
#	285731
#	300560
#	301232
#	301872
#	302537
#	303285
#	303990
#	304705
#	305415
#	306262
#	307180
#	308070
#	308752
#	309400
#	310062
#	310812
#	311512
#	312260
#	312957
#	313755
#	314751
#	315421
#	316089
#	316741
#	317571
#	318281
#	318996
#	319739
#	320596
#	321451
#	322134
#	322814
#	323504
#	324229
#	324924
#	325641
#	326339
#	327131
#	328241
#	329056
#	329801
#	330571
#	331451
#	332261
#	333081
#	333896
#	334886
#
# Disc length: 4479 seconds
#
# Revision: 1
# Processed by: cddbd v1.5.2PL0 Copyright (c) Steve Scherf et al.
# Submitted via: audiograbber 1.83.01
#
DISCID=8e117d41
DTITLE=Various Artist - CDX Volume 639 (September 12, 2016)
DYEAR=2016
DGENRE=Country
TTITLE0=Jon Pardi - Dirt On My Boots
TTITLE1=David Nail (featuring Brothers Osborne) - Good At Tonight 
TTITLE2=Brandy Clark - Love Can Go To Hell 
TTITLE3=Luke Combs - Hurricane
TTITLE4=Zane Williams - Bringin' Country Back
TTITLE5=Ray Stevens - Dear America
TTITLE6=Robby Johnson - Together
TTITLE7=Runaway Hamsters - A Little Country
TTITLE8=Professor And The Bull - Bull Dance 
TTITLE9=Penny Jayne Black - California
TTITLE10=Casey Donahew - Kiss Me
TTITLE11=Robbie Robinson - Make A Wish
TTITLE12=Dan Washburn - Miles On A Rockin' Chair
TTITLE13=James Robert Webb - Put It In Drive
TTITLE14=Casey Chapman - Skin
TTITLE15=Professor And The Bull - Tennessee Honey Whiskey
TTITLE16=Jamie Stever - This Life Ain't For Everyone 
TTITLE17=Tucker - What I Can Change
TTITLE18=Tim Elliott - What's Not To Love
TTITLE19=Aaron Tracy - Artist Liner - Today's Best Country
TTITLE20=Aaron Tracy - Artist Liner - Kickin' Country
TTITLE21=Aaron Tracy - Artist Liner - Hometown Country
TTITLE22=Aaron Tracy - Artist Liner - Super Country
TTITLE23=Aaron Tracy - Artist Liner - Today's Hot Country
TTITLE24=Aaron Tracy - Artist Liner - Best In Today's Country
TTITLE25=Aaron Tracy - Artist Liner - More of the Country You Love
TTITLE26=Aaron Tracy - Artist Liner - Howlin' Country
TTITLE27=Aaron Tracy - Artist Liner - My New Single
TTITLE28=Alex Smith - Artist Liner - My New Single
TTITLE29=Alex Smith - Artist Liner - Today's Best Country
TTITLE30=Alex Smith - Artist Liner - Kickin' Country
TTITLE31=Alex Smith - Artist Liner - Hometown Country
TTITLE32=Alex Smith - Artist Liner - Super Country
TTITLE33=Alex Smith - Artist Liner - Today's Hot Country
TTITLE34=Alex Smith - Artist Liner - Best In Today's Country
TTITLE35=Alex Smith - Artist Liner - More of the Country You Love
TTITLE36=Alex Smith - Artist Liner - Howlin' Country
TTITLE37=Darryl Worley - Artist Liner - My New Single
TTITLE38=Darryl Worley - Artist Liner - Today's Best Country
TTITLE39=Darryl Worley - Artist Liner - Kickin' Country
TTITLE40=Darryl Worley - Artist Liner - Hometown Country
TTITLE41=Darryl Worley - Artist Liner - Super Country
TTITLE42=Darryl Worley - Artist Liner - Today's Hot Country
TTITLE43=Darryl Worley - Artist Liner - Best In Today's Country
TTITLE44=Darryl Worley - Artist Liner - More of the Country You Love
TTITLE45=Darryl Worley - Artist Liner - Howlin' Country
TTITLE46=Kelsey Hickman - Artist Liner - My New Single
TTITLE47=Kelsey Hickman - Artist Liner - Today's Best Country
TTITLE48=Kelsey Hickman - Artist Liner - Kickin' Country
TTITLE49=Kelsey Hickman - Artist Liner - Hometown Country
TTITLE50=Kelsey Hickman - Artist Liner - Super Country
TTITLE51=Kelsey Hickman - Artist Liner - Today's Hot Country
TTITLE52=Kelsey Hickman - Artist Liner - Best In Today's Country
TTITLE53=Kelsey Hickman - Artist Liner - More of the Country You Love
TTITLE54=Kelsey Hickman - Artist Liner - Howlin' Country
TTITLE55=Lonnie Spiker - Artist Liner - My New Single
TTITLE56=Lonnie Spiker - Artist Liner - Today's Best Country
TTITLE57=Lonnie Spiker - Artist Liner - Kickin' Country
TTITLE58=Lonnie Spiker - Artist Liner - Hometown Country
TTITLE59=Lonnie Spiker - Artist Liner - Super Country
TTITLE60=Lonnie Spiker - Artist Liner - Today's Hot Country
TTITLE61=Lonnie Spiker - Artist Liner - Best In Today's Country
TTITLE62=Lonnie Spiker - Artist Liner - More of the Country You Love
TTITLE63=Lonnie Spiker - Artist Liner - Howlin' Country
TTITLE64=Ray Stevens - Artist Liner - Letter to America
EXTD=
EXTT0=
EXTT1=
EXTT2=
EXTT3=
EXTT4=
EXTT5=
EXTT6=
EXTT7=
EXTT8=
EXTT9=
EXTT10=
EXTT11=
EXTT12=
EXTT13=
EXTT14=
EXTT15=
EXTT16=
EXTT17=
EXTT18=
EXTT19=
EXTT20=
EXTT21=
EXTT22=
EXTT23=
EXTT24=
EXTT25=
EXTT26=
EXTT27=
EXTT28=
EXTT29=
EXTT30=
EXTT31=
EXTT32=
EXTT33=
EXTT34=
EXTT35=
EXTT36=
EXTT37=
EXTT38=
EXTT39=
EXTT40=
EXTT41=
EXTT42=
EXTT43=
EXTT44=
EXTT45=
EXTT46=
EXTT47=
EXTT48=
EXTT49=
EXTT50=
EXTT51=
EXTT52=
EXTT53=
EXTT54=
EXTT55=
EXTT56=
EXTT57=
EXTT58=
EXTT59=
EXTT60=
EXTT61=
EXTT62=
EXTT63=
EXTT64=
PLAYORDER=
